# xmcd CD database file
#
# Track frame offsets:
#	150
#	29354
#	67402
#	93656
#	114224
#	136156
#	162094
#	181465
#	205854
#	236876
#	260246
#	273397
#	294341
#	322632
#
# Disc length: 4636 seconds
#
# Revision: 1
# Processed by: cddbd v1.5.2PL0 Copyright (c) Steve Scherf et al.
# Submitted via: CDex 1.50
#
DISCID=ce121a0e
DTITLE=Karunesh - Meditation Harmony
DYEAR=2002
DGENRE=New Age
TTITLE0=A Journey of the Heart
TTITLE1=Alibaba
TTITLE2=Beyong the Horizon
TTITLE3=Call of the tribes (Remix)
TTITLE4=Chuang Tzu's Dream
TTITLE5=Eath and Sky
TTITLE6=Fantasy Dancer
TTITLE7=Karunesh - Keeper of Mystery
TTITLE8=New Morning
TTITLE9=Sapphire
TTITLE10=Sounds of the Heart II
TTITLE11=The Commune
TTITLE12=Wonderer
TTITLE13=Zen Breakfast
EXTD=YEAR: 2002
EXTT0=
EXTT1=
EXTT2=
EXTT3=
EXTT4=
EXTT5=
EXTT6=
EXTT7=
EXTT8=
EXTT9=
EXTT10=
EXTT11=
EXTT12=
EXTT13=
PLAYORDER=
